HIERARCHY
ROOT SimulationBone
{
	OFFSET 0.000000 0.000000 0.000000
	CHANNELS 6 Xposition Yposition Zposition Zrotation Yrotation Xrotation 
	JOINT Hips
	{
		OFFSET 0.000000 0.000000 0.000000
		CHANNELS 6 Xposition Yposition Zposition Zrotation Yrotation Xrotation 
		JOINT RightUpLeg
		{
			OFFSET 0.103459 1.857831 10.548505
			CHANNELS 3 Zrotation Yrotation Xrotation
			JOINT RightLeg
			{
				OFFSET 43.500004 -0.000023 -0.000004
				CHANNELS 3 Zrotation Yrotation Xrotation
				JOINT RightFoot
				{
					OFFSET 42.372204 0.000019 -0.000006
					CHANNELS 3 Zrotation Yrotation Xrotation
					JOINT RightToe
					{
						OFFSET 17.300005 0.000001 -0.000002
						CHANNELS 3 Zrotation Yrotation Xrotation
						End Site
						{
							OFFSET 0.000000 0.000000 0.000000
						}
					}
				}
			}
		}
		JOINT LeftUpLeg
		{
			OFFSET 0.103461 1.857828 -10.548505
			CHANNELS 3 Zrotation Yrotation Xrotation
			JOINT LeftLeg
			{
				OFFSET 43.500046 -0.000019 0.000006
				CHANNELS 3 Zrotation Yrotation Xrotation
				JOINT LeftFoot
				{
					OFFSET 42.372261 -0.000015 0.000011
					CHANNELS 3 Zrotation Yrotation Xrotation
					JOINT LeftToe
					{
						OFFSET 17.299999 -0.000003 0.000002
						CHANNELS 3 Zrotation Yrotation Xrotation
						End Site
						{
							OFFSET 0.000000 0.000000 0.000000
						}
					}
				}
			}
		}
		JOINT Spine
		{
			OFFSET 6.901964 -2.603731 0.000000
			CHANNELS 3 Zrotation Yrotation Xrotation
			JOINT Spine1
			{
				OFFSET 12.588102 -0.000003 0.000000
				CHANNELS 3 Zrotation Yrotation Xrotation
				JOINT Spine2
				{
					OFFSET 12.343204 0.000002 0.000000
					CHANNELS 3 Zrotation Yrotation Xrotation
					JOINT Neck
					{
						OFFSET 25.832891 -0.000013 0.000001
						CHANNELS 3 Zrotation Yrotation Xrotation
						JOINT Head
						{
							OFFSET 11.766613 0.000015 -0.000000
							CHANNELS 3 Zrotation Yrotation Xrotation
							End Site
							{
								OFFSET 0.000000 0.000000 0.000000
							}
						}
					}
					JOINT RightShoulder
					{
						OFFSET 19.745911 -1.480375 6.000106
						CHANNELS 3 Zrotation Yrotation Xrotation
						JOINT RightArm
						{
							OFFSET 11.284125 -0.000012 -0.000024
							CHANNELS 3 Zrotation Yrotation Xrotation
							JOINT RightForeArm
							{
								OFFSET 33.000050 0.000007 0.000027
								CHANNELS 3 Zrotation Yrotation Xrotation
								JOINT RightHand
								{
									OFFSET 25.200005 0.000018 0.000002
									CHANNELS 3 Zrotation Yrotation Xrotation
									End Site
									{
										OFFSET 0.000000 0.000000 0.000000
									}
								}
							}
						}
					}
					JOINT LeftShoulder
					{
						OFFSET 19.746092 -1.480375 -6.000074
						CHANNELS 3 Zrotation Yrotation Xrotation
						JOINT LeftArm
						{
							OFFSET 11.284139 -0.000017 -0.000020
							CHANNELS 3 Zrotation Yrotation Xrotation
							JOINT LeftForeArm
							{
								OFFSET 33.000099 0.000021 0.000012
								CHANNELS 3 Zrotation Yrotation Xrotation
								JOINT LeftHand
								{
									OFFSET 25.199780 0.000137 0.000427
									CHANNELS 3 Zrotation Yrotation Xrotation
									End Site
									{
										OFFSET 0.000000 0.000000 0.000000
									}
								}
							}
						}
					}
				}
			}
		}
	}
}
MOTION
Frames: 14
Frame Time: 0.033333
-14.510810 0.000000 -95.315140 180.000000 88.217918 180.000000 2.428046 88.553032 -1.139594 97.601694 -7.175610 179.736309 -178.144352 13.938991 -179.136860 -24.272378 -3.719544 -13.979476 90.869745 9.793869 1.918643 21.454557 0.003111 0.000019 157.720843 17.999106 -174.698836 -60.584188 -3.888521 -0.623451 83.893431 2.509507 9.190267 21.454555 -0.003092 -0.000001 7.833447 -2.900150 0.508183 5.638974 -5.821383 0.876148 5.319127 -5.816137 0.911404 6.115249 -10.276826 -11.983859 -12.324328 9.530901 -17.584845 167.924804 -80.375631 10.783471 17.775309 55.380762 33.386098 -64.472970 -13.306581 2.187102 12.417730 0.763575 41.223241 -163.530520 76.130067 18.254640 2.149232 -67.007059 -47.659151 -48.670541 19.157151 -1.984580 8.665299 10.641009 -13.907636 
-14.474111 0.000000 -95.508671 180.000000 88.439671 180.000000 2.397635 88.604050 -1.153492 97.744522 -6.873965 179.817980 -177.822828 13.581101 -179.208892 -24.185809 -3.753237 -13.990366 90.953982 9.798404 1.936290 21.454562 0.003116 0.000019 158.196962 18.179313 -175.652740 -58.460463 -3.988264 0.970642 83.457474 0.933856 6.962259 21.454553 -0.003096 -0.000002 7.825401 -2.903280 0.488904 5.623854 -5.826646 0.837798 5.303996 -5.821625 0.873077 7.119740 -10.430176 -13.454528 -12.844667 10.662549 -19.479488 169.952728 -79.743968 8.749067 22.600604 57.470974 41.643916 -66.607458 -12.164280 2.193172 12.274441 2.610957 43.132938 -162.576425 75.503575 19.236451 7.545494 -68.645990 -52.963254 -51.810383 18.352092 -2.034033 12.152691 20.834418 -6.431721 
-14.411491 0.000000 -95.669977 180.000000 88.650795 180.000000 2.458435 88.560181 -1.160016 97.997923 -6.664670 179.582335 -177.515524 13.322415 -179.447060 -24.357708 -3.816647 -14.082598 91.230277 9.831615 1.854449 21.454560 0.003103 0.000019 158.780492 18.427096 -177.493763 -55.996182 -3.884654 1.428258 83.388243 0.496631 6.448551 21.454550 -0.003087 0.000001 7.835452 -2.937376 0.508555 5.642935 -5.895809 0.875005 5.323044 -5.890558 0.910718 8.116867 -10.600624 -14.985963 -13.322776 11.768448 -21.440768 171.114544 -78.946072 7.596962 28.434998 58.435520 48.137387 -68.999111 -10.967255 2.207127 14.528092 -4.648558 21.239554 -158.982994 74.815140 22.926831 11.791771 -68.245850 -53.936535 -54.158288 17.903157 -2.084362 10.824532 23.929091 -9.071381 
-14.325325 0.000000 -95.800416 180.000000 88.851446 180.000000 2.535360 88.505203 -1.142645 98.197137 -6.568970 179.342892 -177.256332 13.190198 -179.147734 -24.462830 -4.015122 -14.472339 91.457490 10.057747 1.706394 21.454562 0.003106 0.000017 159.297702 19.049309 -179.180300 -53.449184 -3.567154 0.956240 83.442843 0.812826 6.441950 21.454550 -0.003080 0.000000 7.796769 -3.024182 0.570721 5.562002 -6.072023 0.997417 5.242008 -6.066040 1.034192 9.904768 -10.115532 -16.694698 -14.328673 12.542036 -23.404560 174.045596 -78.513564 4.628076 33.789687 58.383760 48.178481 -71.266371 -10.583723 2.273554 12.932087 -7.103227 32.408155 -155.794197 74.186769 26.208445 12.875486 -65.138155 -54.029648 -57.124530 16.162985 -2.071948 7.937278 21.444863 -14.643507 
-14.217988 0.000000 -95.901343 180.000000 89.041786 180.000000 2.576226 88.479813 -1.104456 98.293719 -6.491256 179.352220 -177.132869 12.962596 -179.288395 -24.637232 -4.085766 -14.462355 91.657792 10.030367 1.627597 21.454560 0.003100 0.000017 159.853392 19.951710 -179.137024 -50.824554 -3.636558 0.507581 83.158585 1.269561 7.026208 21.454551 -0.003086 -0.000001 7.735079 -3.074972 0.660484 5.433359 -6.177311 1.178193 5.113304 -6.170202 1.215603 11.639898 -10.228235 -18.296492 -14.643461 13.563789 -25.378101 176.113108 -78.382937 2.525955 33.898188 55.102285 47.840865 -73.575652 -9.302903 2.281086 10.808212 -7.318644 47.625287 -155.112476 74.854331 26.893433 14.573006 -61.716469 -56.688835 -60.302477 15.317548 -2.131354 6.378295 17.022022 -19.491915 
-14.091854 0.000000 -95.974114 180.000000 89.221975 180.000000 2.620725 88.450760 -1.031768 98.396725 -6.425421 179.474028 -177.029610 12.723908 -179.192964 -24.846213 -4.178555 -14.519223 91.839127 10.043584 1.514934 21.454560 0.003109 0.000016 160.473191 20.949602 -178.569627 -48.373336 -3.524680 0.444728 82.716016 1.452756 7.569106 21.454545 -0.003090 0.000000 7.696778 -3.118338 0.812237 5.348036 -6.270515 1.482371 5.027972 -6.261599 1.520331 12.922630 -10.506134 -19.758084 -14.143461 14.407826 -27.057888 174.452443 -78.629356 4.210285 32.594947 50.772700 47.848026 -77.108970 -7.626278 2.314360 13.122883 -2.614475 46.022371 -154.924933 75.646135 27.068315 16.670607 -58.045311 -59.622108 -64.252696 14.230299 -2.207971 6.336885 13.009494 -21.841857 
-13.949297 0.000000 -96.020087 180.000000 89.392175 180.000000 2.652529 88.441818 -0.915239 98.498724 -6.352685 179.655331 -176.969068 12.527805 -178.692010 -25.065660 -4.239714 -14.790396 91.956449 10.189545 1.292689 21.454558 0.003116 0.000019 161.079275 21.726304 -178.412232 -46.084471 -3.259831 0.837435 82.239357 1.211512 7.651290 21.454551 -0.003098 0.000000 7.675277 -3.148311 0.895573 5.300067 -6.333950 1.649207 4.979999 -6.324010 1.687548 13.918122 -10.886018 -20.826387 -13.746669 15.213423 -28.357398 172.364099 -79.076324 6.321366 31.663299 46.606643 48.602018 -80.832987 -6.177758 2.374088 14.164016 0.106108 45.474816 -154.407232 76.066943 27.588565 17.170122 -54.086444 -60.963721 -68.592988 12.352250 -2.250967 7.279536 8.257895 -24.111171 
-13.792692 0.000000 -96.040616 180.000000 89.552546 180.000000 2.676386 88.482384 -0.739944 98.632561 -6.184732 179.838744 -176.850974 12.208403 -178.006792 -25.173460 -4.331116 -15.153908 91.990511 10.398383 1.029600 21.454560 0.003110 0.000018 161.927967 22.262699 -178.956940 -43.509879 -2.510514 1.298683 81.893080 0.921216 7.817718 21.454553 -0.003090 0.000001 7.680728 -3.150472 0.926769 5.309250 -6.339754 1.711306 4.989189 -6.329436 1.749701 14.585319 -11.006590 -21.606486 -13.842982 15.582470 -29.284002 170.045359 -79.792708 8.653128 31.525329 43.112646 48.994050 -85.031689 -4.493619 2.440523 14.654046 1.015716 48.968628 -153.764811 76.357909 28.238640 17.120247 -50.398456 -61.515149 -72.846645 10.400845 -2.290245 7.937252 3.162742 -27.703572 
-13.624413 0.000000 -96.037058 180.000000 89.703240 180.000000 2.686011 88.537209 -0.506079 98.677121 -5.950684 -179.776485 -176.869360 11.713196 -177.429354 -25.376460 -4.414516 -15.335301 92.062685 10.486775 0.774528 21.454557 0.003126 0.000019 163.138631 22.651084 -179.040200 -40.363713 -1.714679 1.469653 81.722134 0.912582 8.367456 21.454553 -0.003094 0.000000 7.677623 -3.126422 0.892203 5.305171 -6.290089 1.643282 4.985126 -6.280187 1.681371 15.164185 -10.853224 -22.312707 -14.369774 15.695657 -30.104069 168.146362 -80.403389 10.557550 31.712466 39.943131 49.107028 -89.515230 -3.056924 2.539024 16.097214 2.695477 54.675019 -152.804405 76.514982 29.216329 17.057542 -47.189842 -62.028056 -76.833693 8.475441 -2.324015 8.332159 -0.266630 -30.007623 
-13.446835 0.000000 -96.010770 180.000000 89.844361 180.000000 2.724935 88.628868 -0.292918 98.620215 -5.704104 -179.299522 -176.889223 11.163411 -177.258039 -25.419234 -4.362041 -15.223378 92.070902 10.391315 0.592631 21.454557 0.003096 0.000017 164.623665 22.840388 -177.848564 -36.672474 -1.379858 1.376008 81.225627 1.268741 9.522578 21.454553 -0.003086 0.000000 7.642677 -3.102853 0.851171 5.237564 -6.240686 1.564028 4.917530 -6.231265 1.601812 15.624251 -10.642481 -23.090737 -14.648268 15.776007 -30.939941 165.395367 -81.104282 13.317445 31.871486 37.156458 50.082277 -93.871238 -2.598725 2.701697 18.847333 6.119615 59.007070 -151.902929 76.556804 30.136263 17.430450 -44.460515 -62.702899 -80.356458 6.637427 -2.346780 7.717263 -2.104835 -30.684106 
-13.262332 0.000000 -95.963108 180.000000 89.974700 180.000000 2.831292 88.699783 -0.103322 98.557646 -5.568388 -178.840837 -176.849375 10.720002 -177.249734 -25.388768 -4.260107 -15.011410 92.061886 10.230766 0.432090 21.454560 0.003100 0.000016 166.496325 22.985316 -175.915607 -32.444068 -0.934835 1.321032 80.605637 1.629090 10.725381 21.454551 -0.003107 -0.000002 7.599872 -3.095946 0.816202 5.153735 -6.224797 1.496656 4.833702 -6.215792 1.534345 15.834701 -10.430731 -23.837096 -14.723957 15.773473 -31.687122 161.351785 -81.652582 17.386253 32.203635 34.578604 50.918039 -98.412992 -2.043021 2.866295 23.389296 11.243478 62.047487 -151.109493 76.568955 30.946433 18.193358 -42.262209 -63.458092 -83.290578 4.986289 -2.358802 6.097802 -2.658864 -31.805992 
-13.073279 0.000000 -95.895427 0.000000 89.900125 0.000000 2.990493 88.807602 0.042871 98.526504 -5.405206 -178.515949 -176.669250 10.261903 -177.221921 -25.141513 -4.227630 -14.854200 91.969815 10.120713 0.320903 21.454557 0.003113 0.000016 168.725453 22.740210 -174.444630 -27.766630 -0.040569 1.565733 79.258908 1.810345 11.741868 21.454553 -0.003096 0.000002 7.561666 -3.074759 0.789633 5.078752 -6.180859 1.446408 4.758746 -6.172147 1.483826 15.796593 -10.292535 -24.475749 -14.943699 15.667006 -32.336656 157.210478 -82.005539 21.556248 32.732497 32.346601 52.182973 -102.602808 -1.427748 3.010338 26.793787 15.157829 62.519590 -149.801717 76.687848 32.278736 18.825335 -40.696572 -64.144137 -85.667231 3.647706 -2.369251 4.236617 -1.463432 -32.289712 
-12.882050 0.000000 -95.809085 0.000000 89.786549 0.000000 3.097633 89.053391 0.113873 98.393211 -5.057337 -178.445343 -176.398815 9.676104 -177.033394 -24.328734 -4.340320 -14.908782 91.603185 10.183878 0.320077 21.454558 0.003108 0.000017 170.621377 22.191194 -172.587187 -23.530956 0.470075 0.711799 75.830099 2.707728 11.448848 21.454555 -0.003084 0.000001 7.499601 -3.029984 0.793818 4.954438 -6.090823 1.459987 4.634494 -6.082033 1.496877 15.479171 -10.145296 -24.900664 -15.308196 15.638575 -32.829219 153.441415 -82.429230 25.339708 33.398204 30.828595 53.778229 -106.097194 -0.903820 3.128540 27.118908 17.776344 60.530987 -148.361667 76.605380 33.751697 18.832660 -39.714890 -64.410193 -87.263863 2.891764 -2.386623 2.485574 -0.137859 -32.953129 
-12.691020 0.000000 -95.705438 0.000000 89.681601 0.000000 3.119358 89.360786 0.154126 98.086528 -4.574940 -178.730061 -176.292852 9.068691 -177.031700 -23.312067 -4.377500 -15.086457 91.099082 10.331711 0.294682 21.454558 0.003105 0.000016 171.728291 21.178108 -172.053981 -20.398452 0.261328 0.611273 73.979958 2.947587 11.355765 21.454551 -0.003083 0.000001 7.389450 -2.958682 0.812886 4.733212 -5.947759 1.506919 4.413369 -5.938691 1.542928 14.959982 -10.271050 -25.120900 -15.524899 15.730291 -33.163639 152.144567 -82.548731 26.641660 34.368323 29.711111 55.008947 -108.977096 -0.505262 3.227051 25.880995 18.847478 59.289805 -147.984627 76.519525 34.139594 18.130447 -39.401944 -64.609901 -87.739633 2.880524 -2.406800 0.232466 0.908067 -33.956070 
